<?xml version="1.0" encoding="utf-8"?>
<!-- Generator: Adobe Illustrator 27.5.0, SVG Export Plug-In . SVG Version: 6.00 Build 0)  -->
<svg version="1.1" id="Calque_1" xmlns="http://www.w3.org/2000/svg" xmlns:xlink="http://www.w3.org/1999/xlink" x="0px" y="0px"
	 viewBox="0 0 500 500" style="enable-background:new 0 0 500 500;" xml:space="preserve">
<style type="text/css">
	.st0{fill:#1D1D1F;}
	.st1{fill:url(#SVGID_1_);}
	.st2{fill:url(#SVGID_00000064325689910376410670000018132426486103788179_);}
	.st3{fill:url(#SVGID_00000150806525438261184970000008549398974905205940_);}
	.st4{fill:url(#SVGID_00000138534738384834991890000003686312569378195585_);}
	.st5{fill:url(#SVGID_00000045591438293844561510000011580208997792392858_);}
	.st6{fill:url(#SVGID_00000176734669393862466350000014589191137697961640_);}
	.st7{fill:url(#SVGID_00000183250559219473781970000000507794151437432228_);}
	.st8{fill:url(#SVGID_00000121269210349559271750000009970560705987284619_);}
	.st9{fill:#FFFFFF;}
	.st10{font-family:'ArialMT';}
	.st11{font-size:39.8105px;}
	.st12{letter-spacing:1.1;}
</style>
<g id="BACKGROUND">
	<rect y="0" class="st0" width="294" height="116.9"/>
</g>
<g id="OBJECTS">
	<g>
		
			<linearGradient id="SVGID_1_" gradientUnits="userSpaceOnUse" x1="11.9265" y1="385.443" x2="180.2565" y2="385.443" gradientTransform="matrix(0.9998 1.820000e-02 -1.820000e-02 0.9998 3.9928 -345.0648)">
			<stop  offset="0" style="stop-color:#5CB8FF"/>
			<stop  offset="1" style="stop-color:#2F2569"/>
		</linearGradient>
		<path class="st1" d="M177.5,27c-2.5,14-21.4,20.3-45.8,23.1c-47.3,5.4-115.1-2.4-123.1,7C16.7,46,45.4,43.8,77,42.9h0.1
			C119.7,41.5,167.6,42.5,177.5,27z"/>
		
			<linearGradient id="SVGID_00000073702020341428170750000013345954053867467701_" gradientUnits="userSpaceOnUse" x1="152.447" y1="378.1553" x2="265.5377" y2="399.482" gradientTransform="matrix(0.9998 1.820000e-02 -1.820000e-02 0.9998 3.9928 -345.0648)">
			<stop  offset="0" style="stop-color:#5CB8FF"/>
			<stop  offset="1" style="stop-color:#2F2569"/>
		</linearGradient>
		<path style="fill:url(#SVGID_00000073702020341428170750000013345954053867467701_);" d="M271,40.6c-41.2,10.5-77-21.2-138.8-16
			c-15.5,1.3-65,18.5-65,18.5C79.4,35.7,122,21.5,132,20.3c9-1.1,43.8-6.4,85.3,5.8l0,0c3.6,1.1,7.2,2.2,10.9,3.6
			C254.7,39.3,271,40.6,271,40.6z"/>
		
			<linearGradient id="SVGID_00000006699137404229462960000012704928030482510208_" gradientUnits="userSpaceOnUse" x1="199.3248" y1="390.0474" x2="271.5881" y2="384.6993" gradientTransform="matrix(0.9998 1.820000e-02 -1.820000e-02 0.9998 3.9928 -345.0648)">
			<stop  offset="0" style="stop-color:#5CB8FF"/>
			<stop  offset="1" style="stop-color:#2F2569"/>
		</linearGradient>
		<path style="fill:url(#SVGID_00000006699137404229462960000012704928030482510208_);" d="M271,40.6c-16.1,18.2-55.1,10.9-88,9.6
			c-10.2-0.4-19.9-0.2-28.1,1.5c29.6-13.7,61.7-9.5,85.3-7.7l0,0C254.2,45.1,265.2,45.4,271,40.6z"/>
		
			<linearGradient id="SVGID_00000036957051814430886450000009565962113704263098_" gradientUnits="userSpaceOnUse" x1="23.847" y1="401.8989" x2="24.7713" y2="409.2936" gradientTransform="matrix(0.9998 1.820000e-02 -1.820000e-02 0.9998 3.9928 -345.0648)">
			<stop  offset="0" style="stop-color:#FFFFFF"/>
			<stop  offset="1" style="stop-color:#686869"/>
		</linearGradient>
		<path style="fill:url(#SVGID_00000036957051814430886450000009565962113704263098_);" d="M35.6,56.6c-2.6,7.3-11.9,7.3-19.4,7.1
			c-4.6-0.1-8.6-0.2-10,1.2C8,57.9,19,56.1,27.1,56C31.1,56,34.4,56.3,35.6,56.6z"/>
		
			<linearGradient id="SVGID_00000068667567738409800380000007617662201217430921_" gradientUnits="userSpaceOnUse" x1="80.1572" y1="380.8849" x2="180.2565" y2="380.8849" gradientTransform="matrix(0.9998 1.820000e-02 -1.820000e-02 0.9998 3.9928 -345.0648)">
			<stop  offset="0" style="stop-color:#5CB8FF"/>
			<stop  offset="1" style="stop-color:#2F2569"/>
		</linearGradient>
		<path style="fill:url(#SVGID_00000068667567738409800380000007617662201217430921_);" d="M177.5,27c-2.5,14-21.4,20.3-45.8,23.1
			c-19.2,0.9-26.5-7.9-54.6-7.3C119.7,41.5,167.6,42.5,177.5,27z"/>
		
			<linearGradient id="SVGID_00000146459092775458898770000007093694995263299766_" gradientUnits="userSpaceOnUse" x1="70.164" y1="373.683" x2="219.9349" y2="373.683" gradientTransform="matrix(0.9998 1.820000e-02 -1.820000e-02 0.9998 3.9928 -345.0648)">
			<stop  offset="0" style="stop-color:#5CB8FF"/>
			<stop  offset="1" style="stop-color:#2F2569"/>
		</linearGradient>
		<path style="fill:url(#SVGID_00000146459092775458898770000007093694995263299766_);" d="M217.2,26.1c-26.2-4.1-48.9-7.7-85.1-1.5
			c-15.5,1.3-65,18.5-65,18.5c12.2-7.4,54.8-21.6,64.8-22.8C140.9,19.3,175.8,14,217.2,26.1z"/>
		
			<linearGradient id="SVGID_00000183947296176945962260000004652901766906081942_" gradientUnits="userSpaceOnUse" x1="192.5036" y1="387.7873" x2="239.0703" y2="396.569" gradientTransform="matrix(0.9998 1.820000e-02 -1.820000e-02 0.9998 3.9928 -345.0648)">
			<stop  offset="0" style="stop-color:#5CB8FF"/>
			<stop  offset="1" style="stop-color:#2F2569"/>
		</linearGradient>
		<path style="fill:url(#SVGID_00000183947296176945962260000004652901766906081942_);" d="M240.3,44c-19.6-0.4-25.4,6.8-57.3,6.2
			l0,0c-10.2-0.4-19.9-0.2-28.1,1.5C184.6,38,216.6,42.2,240.3,44z"/>
		
			<linearGradient id="SVGID_00000163761751020658521300000005627897765384977549_" gradientUnits="userSpaceOnUse" x1="242.6012" y1="391.9152" x2="267.3523" y2="391.9152" gradientTransform="matrix(0.9998 -2.160000e-02 2.160000e-02 0.9998 -4.583 -333.6052)">
			<stop  offset="0" style="stop-color:#FF8778"/>
			<stop  offset="1" style="stop-color:#9C122B"/>
		</linearGradient>
		<path style="fill:url(#SVGID_00000163761751020658521300000005627897765384977549_);" d="M246.5,56c16.9-2.1,24.1-9.2,24.1-9.2
			C272.7,55.3,269.5,62.1,246.5,56z"/>
	</g>
</g>
<g id="TEXTS">
	<g>
		<g>
			<text transform="matrix(0.8716 0 0 1 16.3008 97.8548)" class="st9 st10 st11 st12">Garage Parrot</text>
		</g>
	</g>
</g>
</svg>
